ply
format ascii 1.0
comment PerformativeDesign.com - PLY Export.
element vertex 24
property float x
property float y
property float z
end_header
0.0 0.0 0.999999747
0.942809081 0.0 0.333333222
0.471404377 0.816496289 -0.333333222
-0.471404377 0.816496289 0.333333222
0.0 0.0 0.999999747
-0.471404377 0.816496289 0.333333222
-0.942809081 0.0 -0.333333222
-0.471404377 -0.816496289 0.333333222
0.0 0.0 0.999999747
-0.471404377 -0.816496289 0.333333222
0.471404377 -0.816496289 -0.333333222
0.942809081 0.0 0.333333222
0.942809081 0.0 0.333333222
0.471404377 -0.816496289 -0.333333222
0.0 0.0 -0.999999747
0.471404377 0.816496289 -0.333333222
-0.471404377 0.816496289 0.333333222
0.471404377 0.816496289 -0.333333222
0.0 0.0 -0.999999747
-0.942809081 0.0 -0.333333222
-0.471404377 -0.816496289 0.333333222
-0.942809081 0.0 -0.333333222
0.0 0.0 -0.999999747
0.471404377 -0.816496289 -0.333333222
