ply
format ascii 1.0
comment PerformativeDesign.com - PLY Export.
element vertex 60
property float x
property float y
property float z
end_header
0.0 0.0 0.999999716
0.666666664 0.0 0.745355923
0.745355923 0.577350261 0.333333332
0.12732199 0.934172328 0.333333332
-0.333333332 0.577350261 0.745355923
0.0 0.0 0.999999716
-0.333333332 0.577350261 0.745355923
-0.872678006 0.356822068 0.333333332
-0.872678006 -0.356822068 0.333333332
-0.333333332 -0.577350261 0.745355923
0.0 0.0 0.999999716
-0.333333332 -0.577350261 0.745355923
0.12732199 -0.934172328 0.333333332
0.745355923 -0.577350261 0.333333332
0.666666664 0.0 0.745355923
0.666666664 0.0 0.745355923
0.745355923 -0.577350261 0.333333332
0.872678006 -0.356822068 -0.333333332
0.872678006 0.356822068 -0.333333332
0.745355923 0.577350261 0.333333332
-0.333333332 0.577350261 0.745355923
0.12732199 0.934172328 0.333333332
-0.12732199 0.934172328 -0.333333332
-0.745355923 0.577350261 -0.333333332
-0.872678006 0.356822068 0.333333332
-0.333333332 -0.577350261 0.745355923
-0.872678006 -0.356822068 0.333333332
-0.745355923 -0.577350261 -0.333333332
-0.12732199 -0.934172328 -0.333333332
0.12732199 -0.934172328 0.333333332
0.745355923 0.577350261 0.333333332
0.872678006 0.356822068 -0.333333332
0.333333332 0.577350261 -0.745355923
-0.12732199 0.934172328 -0.333333332
0.12732199 0.934172328 0.333333332
0.745355923 -0.577350261 0.333333332
0.12732199 -0.934172328 0.333333332
-0.12732199 -0.934172328 -0.333333332
0.333333332 -0.577350261 -0.745355923
0.872678006 -0.356822068 -0.333333332
-0.872678006 0.356822068 0.333333332
-0.745355923 0.577350261 -0.333333332
-0.666666664 0.0 -0.745355923
-0.745355923 -0.577350261 -0.333333332
-0.872678006 -0.356822068 0.333333332
0.872678006 0.356822068 -0.333333332
0.872678006 -0.356822068 -0.333333332
0.333333332 -0.577350261 -0.745355923
0.0 0.0 -0.999999716
0.333333332 0.577350261 -0.745355923
-0.745355923 0.577350261 -0.333333332
-0.12732199 0.934172328 -0.333333332
0.333333332 0.577350261 -0.745355923
0.0 0.0 -0.999999716
-0.666666664 0.0 -0.745355923
-0.12732199 -0.934172328 -0.333333332
-0.745355923 -0.577350261 -0.333333332
-0.666666664 0.0 -0.745355923
0.0 0.0 -0.999999716
0.333333332 -0.577350261 -0.745355923
