ply
format ascii 1.0
comment PerformativeDesign.com - PLY Export.
element vertex 60
property float x
property float y
property float z
end_header
0.0 0.0 1.0
0.894426623 0.0 0.447213397
0.276393089 0.85065045 0.447213397
0.0 0.0 1.0
0.276393089 0.85065045 0.447213397
-0.723606486 0.5257309 0.447213397
0.0 0.0 1.0
-0.723606486 0.5257309 0.447213397
-0.723606486 -0.5257309 0.447213397
0.0 0.0 1.0
-0.723606486 -0.5257309 0.447213397
0.276393089 -0.85065045 0.447213397
0.0 0.0 1.0
0.276393089 -0.85065045 0.447213397
0.894426623 0.0 0.447213397
0.894426623 0.0 0.447213397
0.276393089 -0.85065045 0.447213397
0.723606486 -0.5257309 -0.447213397
0.894426623 0.0 0.447213397
0.723606486 -0.5257309 -0.447213397
0.723606486 0.5257309 -0.447213397
0.894426623 0.0 0.447213397
0.723606486 0.5257309 -0.447213397
0.276393089 0.85065045 0.447213397
0.276393089 0.85065045 0.447213397
0.723606486 0.5257309 -0.447213397
-0.276393089 0.85065045 -0.447213397
0.276393089 0.85065045 0.447213397
-0.276393089 0.85065045 -0.447213397
-0.723606486 0.5257309 0.447213397
-0.723606486 0.5257309 0.447213397
-0.276393089 0.85065045 -0.447213397
-0.894426623 0.0 -0.447213397
-0.723606486 0.5257309 0.447213397
-0.894426623 0.0 -0.447213397
-0.723606486 -0.5257309 0.447213397
-0.723606486 -0.5257309 0.447213397
-0.894426623 0.0 -0.447213397
-0.276393089 -0.85065045 -0.447213397
-0.723606486 -0.5257309 0.447213397
-0.276393089 -0.85065045 -0.447213397
0.276393089 -0.85065045 0.447213397
0.276393089 -0.85065045 0.447213397
-0.276393089 -0.85065045 -0.447213397
0.723606486 -0.5257309 -0.447213397
0.723606486 0.5257309 -0.447213397
0.723606486 -0.5257309 -0.447213397
0.0 0.0 -1.0
0.723606486 0.5257309 -0.447213397
0.0 0.0 -1.0
-0.276393089 0.85065045 -0.447213397
0.723606486 -0.5257309 -0.447213397
-0.276393089 -0.85065045 -0.447213397
0.0 0.0 -1.0
-0.276393089 0.85065045 -0.447213397
0.0 0.0 -1.0
-0.894426623 0.0 -0.447213397
-0.894426623 0.0 -0.447213397
0.0 0.0 -1.0
-0.276393089 -0.85065045 -0.447213397
