ply
format ascii 1.0
comment PerformativeDesign.com - PLY Export.
element vertex 12
property float x
property float y
property float z
end_header
0.0 0.0 0.999999894
0.942808743 0.0 -0.333333279
-0.471404429 0.816496656 -0.333333279
0.0 0.0 0.999999894
-0.471404429 0.816496656 -0.333333279
-0.471404429 -0.816496656 -0.333333279
0.0 0.0 0.999999894
-0.471404429 -0.816496656 -0.333333279
0.942808743 0.0 -0.333333279
0.942808743 0.0 -0.333333279
-0.471404429 -0.816496656 -0.333333279
-0.471404429 0.816496656 -0.333333279
